# xmcd CD database file
#
# Track frame offsets:
#	150
#	43327
#	78273
#	113294
#	140553
#	181380
#	224307
#	263498
#
# Disc length: 3940 seconds
#
# Revision: 0
# Processed by: cddbd v1.5.2PL0 Copyright (c) Steve Scherf et al.
# Submitted via: CDex 1.51
#
DISCID=670f6208
DTITLE=Jae Sinnett - It's Telling...A Drummer's Perspective
DYEAR=2008
DGENRE=Jazz
TTITLE0=It's Telling
TTITLE1=Cliffhanger
TTITLE2=Simple Pleasures
TTITLE3=Bum's Rush
TTITLE4=Locus
TTITLE5=Manque
TTITLE6=Crescent City
TTITLE7=Truth Be Told
EXTD=YEAR: 2008
EXTT0=
EXTT1=
EXTT2=
EXTT3=
EXTT4=
EXTT5=
EXTT6=
EXTT7=
PLAYORDER=
